<svg fill="none" height="28" viewBox="0 0 28 28" width="28" xmlns="http://www.w3.org/2000/svg"><g fill="#542ded"><path d="m10.7067 22.0133c.3944.0053.7784.1271 1.1038.35.3253.2229.5775.5371.7248.903s.1831.7671.103 1.1533c-.0802.3862-.2727.7401-.5535 1.0171-.2807.2771-.6371.4649-1.0243.5399-.3872.0751-.788.0339-1.15188-.1182-.36391-.1521-.6747-.4084-.89331-.7367-.2186-.3283-.33526-.7139-.3353-1.1084-.00002-.2649.05258-.5271.15476-.7715.10217-.2444.25188-.4661.44043-.6522s.41218-.3328.65792-.4317c.24578-.099.50868-.1481.77358-.1446zm0-1.3333c-.6604-.0053-1.30747.1857-1.85913.5488-.55166.363-.98305.8817-1.23943 1.4903-.25639.6086-.32622 1.2797-.20063 1.928.12559.6484.44094 1.2448.90603 1.7137.4651.4688 1.05898.7889 1.70626.9197.6474.1308 1.3189.0664 1.9296-.1851.6106-.2515 1.1328-.6787 1.5003-1.2274.3674-.5487.5636-1.1943.5636-1.8547.0001-.8794-.3475-1.7232-.9668-2.3476-.6194-.6244-1.4604-.9787-2.3398-.9857z" opacity=".64"/><path d="m21.3865 22.0134c.3938.0078.7765.1318 1.1.3563.3236.2245.5738.5395.719.9056.1453.3661.1792.7669.0976 1.1522s-.2752.7379-.5564 1.0136c-.2813.2757-.6376.4623-1.0245.5362-.3868.074-.7869.0322-1.15-.1203s-.6732-.4088-.8912-.7368-.3344-.713-.3345-1.1068c.0035-.5294.2153-1.0361.5897-1.4104.3743-.3743.881-.5862 1.4103-.5896zm-.04-1.3334c-.6593 0-1.3037.1955-1.8519.5618-.5481.3663-.9754.8869-1.2277 1.4959-.2523.6091-.3183 1.2794-.1897 1.926.1287.6466.4461 1.2405.9123 1.7067s1.0601.7836 1.7067.9122c.6466.1287 1.3168.0626 1.9259-.1896.6091-.2523 1.1297-.6796 1.496-1.2277.3663-.5482.5618-1.1927.5618-1.8519 0-.8772-.3457-1.7191-.9622-2.343-.6165-.624-1.4541-.9799-2.3312-.9904z" opacity=".64"/><path d="m22.0133 20.0267h-9.0534c-1.3649.0055-2.6907-.4555-3.75765-1.3066-1.06698-.8512-1.81109-2.0414-2.10898-3.3734l-2.66667-11.76001c-.09605-.44017-.3379-.83502-.68638-1.12058-.34847-.28555-.78316-.44509-1.23362-.45275h-1.16c-.17574-.00342-.34334-.07475-.467629-.19904-.124292-.12429-.195626-.29189-.199039-.46763 0-.17681.070238-.34638.195262-.471403.125026-.125024.294596-.195262.471406-.195262h1.16c.76748-.002134 1.51181.262772 2.10538.749305.59357.48653.99941 1.16439 1.14795 1.91736l2.66667 11.76001c.22844 1.0382.80548 1.9669 1.6351 2.6316.8296.6647 1.8618 1.0252 2.9249 1.0217h9.0267c.1768 0 .3463.0703.4714.1953.125.125.1952.2946.1952.4714-.0166.165-.094.3179-.2173.4289-.1233.1109-.2835.1719-.4493.1711z" opacity=".8"/><path d="m27.3466 6.24002c-.0699 1.19469-.5395 2.33116-1.3334 3.22667v1.20001c0 1.2377-.4916 2.4246-1.3668 3.2998s-2.0622 1.3669-3.2998 1.3669h-11.3334c-.45383.0014-.89451-.1526-1.24868-.4364s-.60048-.6804-.69796-1.1236l-1.97333-9.09338h10.73337c.1077-.46936.2876-.91916.5333-1.33333h-12.10667c-.09946.00196-.19728.02573-.28656.06962s-.16784.10683-.23014.18439-.10683.16785-.13044.26449c-.0236.09664-.02572.19728-.00619.29483l2.21333 9.85338c.14671.744.54472 1.415 1.12732 1.9005s1.31438.756 2.07265.7661h11.2667c.7942.0071 1.5818-.1433 2.3176-.4423.7357-.2991 1.4049-.7409 1.969-1.3.564-.5591 1.0117-1.2244 1.3173-1.9574.3055-.7331.4628-1.5194.4628-2.3136v-4.00001c.0108-.14202.0108-.28465 0-.42667z"/><path d="m22.0133 11.3467c-1.0549 0-2.086-.3128-2.9631-.8988-.877-.58607-1.5606-1.41903-1.9643-2.39357s-.5093-2.04689-.3035-3.08146c.2058-1.03456.7138-1.98487 1.4596-2.73075.7459-.74588 1.6962-1.253832 2.7308-1.45962s2.1069-.10017 3.0814.3035c.9746.40366 1.8075 1.08725 2.3936 1.96431.586.87707.8988 1.90821.8988 2.96305 0 1.41448-.5619 2.77104-1.5621 3.77123-1.0002 1.00021-2.3567 1.56211-3.7712 1.56211zm0-9.33334c-.7912 0-1.5645.23459-2.2223.67412-.6578.43952-1.1705 1.06424-1.4733 1.79514-.3027.73091-.3819 1.53517-.2276 2.3111.1544.77592.5353 1.48865 1.0947 2.04806s1.2722.94038 2.0481 1.09472c.7759.1543 1.5802.0751 2.3111-.22763.7309-.30275 1.3556-.81544 1.7951-1.47323.4396-.6578.6742-1.43116.6742-2.22228 0-1.06087-.4215-2.07829-1.1716-2.82843-.7502-.75015-1.7676-1.17157-2.8284-1.17157z"/><path d="m23.9867 5.33335h-1.3334v-1.33333c-.0032-.16997-.0713-.33227-.1903-.45371-.1189-.12145-.2798-.19285-.4497-.19962-.1768 0-.3463.07024-.4714.19526-.125.12502-.1952.29459-.1952.4714v1.33334h-1.3334c-.1768 0-.3463.07024-.4714.19526-.125.12502-.1952.29459-.1952.4714s.0702.34638.1952.47141c.1251.12502.2946.19526.4714.19526h1.3334v1.33333c0 .17681.0702.34638.1952.47141.1251.12502.2946.19526.4714.19526.1769 0 .3464-.07024.4715-.19526.125-.12503.1952-.2946.1952-.47141v-1.33333h1.3333c.1769 0 .3464-.07024.4715-.19526.125-.12503.1952-.2946.1952-.47141s-.0702-.34638-.1952-.4714c-.1251-.12502-.2946-.19526-.4715-.19526z"/></g></svg>