<svg height="33.333" viewBox="0 0 110.744 33.333" width="110.744" xmlns="http://www.w3.org/2000/svg"><g fill="#542ded"><g transform="translate(-3.333 -3.333)"><path d="m15.883 30a3.333 3.333 0 1 0 2.357.976 3.333 3.333 0 0 0 -2.357-.976z" opacity=".64"/><path d="m29.233 30a3.333 3.333 0 1 0 2.357.976 3.333 3.333 0 0 0 -2.357-.976z" opacity=".64"/><path d="m32.5 6.667h-21.767a.833.833 0 0 0 -.55.233l3.333 14.533a.4.4 0 0 0 .117.333 4.117 4.117 0 0 0 3.2 1.5h12.4a7.517 7.517 0 0 0 7.433-7.45v-5a4.167 4.167 0 0 0 -4.166-4.149z"/><path d="m30.233 27.983h-11.333a7.7 7.7 0 0 1 -7.55-6.033l-3.333-14.717a2.267 2.267 0 0 0 -2.167-1.766h-1.45a1.067 1.067 0 1 1 0-2.133h1.45a4.383 4.383 0 0 1 4.3 3.433l3.333 14.717a5.583 5.583 0 0 0 5.467 4.366h11.333a1.067 1.067 0 0 1 0 2.133z" opacity=".8"/></g><path d="m6.768.24a5.243 5.243 0 0 1 -3.948-1.524 6.248 6.248 0 0 1 -1.62-4.164l-.024-.816.024-.792a6.33 6.33 0 0 1 1.644-4.128 5.16 5.16 0 0 1 3.9-1.536 5.165 5.165 0 0 1 4.128 1.692 6.749 6.749 0 0 1 1.464 4.572v.408a.537.537 0 0 1 -.156.4.537.537 0 0 1 -.4.156h-8.3v.216a4.447 4.447 0 0 0 .948 2.652 2.822 2.822 0 0 0 2.316 1.088 3.36 3.36 0 0 0 1.812-.444 3.558 3.558 0 0 0 1.044-.92 1.4 1.4 0 0 1 .324-.348.9.9 0 0 1 .4-.06h1.176a.543.543 0 0 1 .36.12.413.413 0 0 1 .14.332 2.112 2.112 0 0 1 -.66 1.272 5.433 5.433 0 0 1 -1.848 1.284 6.518 6.518 0 0 1 -2.724.54zm3.288-7.392v-.072a3.988 3.988 0 0 0 -.9-2.7 3.023 3.023 0 0 0 -2.412-1.044 2.953 2.953 0 0 0 -2.388 1.044 4.058 4.058 0 0 0 -.876 2.7v.072zm10.872 7.392a8.682 8.682 0 0 1 -3.444-.624 5.335 5.335 0 0 1 -2.22-1.644 3.852 3.852 0 0 1 -.816-2.2.482.482 0 0 1 .156-.348.508.508 0 0 1 .372-.156h1.224a.626.626 0 0 1 .624.48 2.842 2.842 0 0 0 1.236 1.732 4.918 4.918 0 0 0 2.868.72 5.223 5.223 0 0 0 3-.708 2.283 2.283 0 0 0 1.008-1.98 1.809 1.809 0 0 0 -.492-1.32 4.183 4.183 0 0 0 -1.452-.892q-.96-.384-2.88-.96a14.783 14.783 0 0 1 -2.976-1.128 4.313 4.313 0 0 1 -1.656-1.488 4.159 4.159 0 0 1 -.552-2.232 4.019 4.019 0 0 1 .708-2.328 4.706 4.706 0 0 1 2.028-1.62 7.684 7.684 0 0 1 3.144-.588 7.23 7.23 0 0 1 3.216.66 5.18 5.18 0 0 1 2.04 1.668 3.864 3.864 0 0 1 .744 2.016.482.482 0 0 1 -.132.336.479.479 0 0 1 -.372.144h-1.272a.576.576 0 0 1 -.624-.456 2.383 2.383 0 0 0 -1.128-1.664 4.344 4.344 0 0 0 -2.472-.66 4.584 4.584 0 0 0 -2.568.624 2.077 2.077 0 0 0 -.936 1.848 2.017 2.017 0 0 0 .444 1.344 3.628 3.628 0 0 0 1.356.924 23.243 23.243 0 0 0 2.664.9 17.837 17.837 0 0 1 3.216 1.14 4.363 4.363 0 0 1 1.752 1.464 3.964 3.964 0 0 1 .576 2.22 4.112 4.112 0 0 1 -1.728 3.5 7.689 7.689 0 0 1 -4.656 1.276zm14.088-.24q-3.792 0-3.792-4.224v-6.336h-1.872a.537.537 0 0 1 -.4-.156.537.537 0 0 1 -.156-.4v-.816a.537.537 0 0 1 .156-.4.537.537 0 0 1 .4-.156h1.872v-4.008a.537.537 0 0 1 .156-.4.537.537 0 0 1 .4-.156h1.12a.537.537 0 0 1 .4.156.537.537 0 0 1 .156.4v4.008h2.976a.537.537 0 0 1 .4.156.537.537 0 0 1 .156.4v.816a.537.537 0 0 1 -.156.4.537.537 0 0 1 -.4.156h-2.976v6.168a3.284 3.284 0 0 0 .408 1.812 1.5 1.5 0 0 0 1.344.612h1.464a.537.537 0 0 1 .4.156.537.537 0 0 1 .156.4v.864a.537.537 0 0 1 -.156.4.537.537 0 0 1 -.4.156zm9.624.24a5.455 5.455 0 0 1 -4.092-1.488 5.765 5.765 0 0 1 -1.548-3.96l-.024-1.032.024-1.032a5.752 5.752 0 0 1 1.56-3.948 5.439 5.439 0 0 1 4.08-1.5 5.439 5.439 0 0 1 4.08 1.5 5.752 5.752 0 0 1 1.56 3.948q.024.264.024 1.032t-.024 1.032a5.765 5.765 0 0 1 -1.548 3.96 5.455 5.455 0 0 1 -4.092 1.488zm0-1.848a3.072 3.072 0 0 0 2.388-.96 4.218 4.218 0 0 0 .948-2.76q.024-.24.024-.912t-.024-.912a4.218 4.218 0 0 0 -.948-2.76 3.072 3.072 0 0 0 -2.388-.96 3.11 3.11 0 0 0 -2.4.96 4.089 4.089 0 0 0 -.936 2.76l-.024.912.024.912a4.089 4.089 0 0 0 .936 2.76 3.11 3.11 0 0 0 2.4.96zm9.216 1.608a.537.537 0 0 1 -.4-.156.537.537 0 0 1 -.156-.4v-11.344a.578.578 0 0 1 .156-.408.517.517 0 0 1 .4-.168h1.1a.555.555 0 0 1 .408.168.555.555 0 0 1 .168.408v1.056a3.6 3.6 0 0 1 3.368-1.636h.936a.537.537 0 0 1 .4.156.537.537 0 0 1 .156.4v.984a.5.5 0 0 1 -.156.384.561.561 0 0 1 -.4.144h-1.44a2.732 2.732 0 0 0 -2.04.756 2.8 2.8 0 0 0 -.744 2.052v7.052a.517.517 0 0 1 -.168.4.578.578 0 0 1 -.412.152zm13.32.24a5.243 5.243 0 0 1 -3.948-1.524 6.248 6.248 0 0 1 -1.62-4.164l-.024-.816.024-.792a6.33 6.33 0 0 1 1.644-4.128 5.16 5.16 0 0 1 3.9-1.536 5.165 5.165 0 0 1 4.128 1.692 6.748 6.748 0 0 1 1.464 4.572v.408a.537.537 0 0 1 -.156.4.537.537 0 0 1 -.4.156h-8.3v.216a4.447 4.447 0 0 0 .948 2.652 2.822 2.822 0 0 0 2.316 1.092 3.36 3.36 0 0 0 1.812-.444 3.559 3.559 0 0 0 1.044-.924 1.4 1.4 0 0 1 .324-.348.9.9 0 0 1 .4-.06h1.168a.543.543 0 0 1 .36.12.413.413 0 0 1 .144.336 2.112 2.112 0 0 1 -.66 1.272 5.433 5.433 0 0 1 -1.844 1.28 6.518 6.518 0 0 1 -2.724.54zm3.288-7.392v-.072a3.988 3.988 0 0 0 -.9-2.7 3.023 3.023 0 0 0 -2.412-1.044 2.953 2.953 0 0 0 -2.388 1.044 4.058 4.058 0 0 0 -.876 2.7v.072z" transform="translate(38 25)"/></g></svg>